<svg width="420" height="104" viewBox="0 0 420 104" fill="none" xmlns="http://www.w3.org/2000/svg">
<path d="M2 50C0.895431 50 9.65645e-08 50.8954 0 52C-9.65645e-08 53.1046 0.89543 54 2 54L2 50ZM42 50L2 50L2 54L42 54L42 50Z" fill="url(#paint0_linear_626_18)"/>
<path d="M18.5 28.5C17.3954 28.5 16.5 29.3954 16.5 30.5C16.5 31.6046 17.3954 32.5 18.5 32.5L18.5 28.5ZM46.5 28.5L18.5 28.5L18.5 32.5L46.5 32.5L46.5 28.5Z" fill="url(#paint1_linear_626_18)"/>
<path d="M18.5 71.5C17.3954 71.5 16.5 72.3954 16.5 73.5C16.5 74.6046 17.3954 75.5 18.5 75.5L18.5 71.5ZM46.5 71.5L18.5 71.5L18.5 75.5L46.5 75.5L46.5 71.5Z" fill="url(#paint2_linear_626_18)"/>
<path d="M163.5 32.5C164.605 32.5 165.5 31.6046 165.5 30.5C165.5 29.3954 164.605 28.5 163.5 28.5L163.5 32.5ZM135.5 32.5L163.5 32.5L163.5 28.5L135.5 28.5L135.5 32.5Z" fill="url(#paint3_linear_626_18)"/>
<path d="M180 54C181.105 54 182 53.1046 182 52C182 50.8954 181.105 50 180 50L180 54ZM140 54L180 54L180 50L140 50L140 54Z" fill="url(#paint4_linear_626_18)"/>
<path d="M163.5 75.5C164.605 75.5 165.5 74.6046 165.5 73.5C165.5 72.3954 164.605 71.5 163.5 71.5L163.5 75.5ZM135.5 75.5L163.5 75.5L163.5 71.5L135.5 71.5L135.5 75.5Z" fill="url(#paint5_linear_626_18)"/>
<path d="M72.9988 98C34 83.5 29.4996 23.5 73.4989 6" stroke="url(#paint6_linear_626_18)" stroke-width="4" stroke-linecap="round"/>
<path d="M109.001 6C148 20.5 152.5 80.5 108.501 98" stroke="url(#paint7_linear_626_18)" stroke-width="4" stroke-linecap="round"/>
<path d="M103.68 76.664C102.059 76.664 100.907 76.0453 100.224 74.808C99.5413 73.5707 99.2 71.928 99.2 69.88C99.2 67.7893 99.5627 65.336 100.288 62.52L99.904 62.456C97.7707 66.4667 95.04 69.816 91.712 72.504C88.384 75.1493 84.6933 76.472 80.64 76.472C77.2267 76.472 74.7733 75.4267 73.28 73.336C71.7867 71.2027 71.04 68.6213 71.04 65.592C71.04 63.5013 71.3813 60.3013 72.064 55.992C72.7467 51.64 74.0053 44.6853 75.84 35.128L73.856 31.224C75.136 30.3707 76.4373 29.7093 77.76 29.24C79.0827 28.728 80.2773 28.472 81.344 28.472C82.2827 28.472 82.9867 28.7707 83.456 29.368C83.968 29.9653 84.224 30.8187 84.224 31.928C84.224 32.312 84.032 33.528 83.648 35.576C83.264 37.5813 82.8373 39.8 82.368 42.232C81.2587 47.9067 80.3627 52.5787 79.68 56.248C79.04 59.9173 78.72 62.4347 78.72 63.8C78.72 66.1893 79.104 67.96 79.872 69.112C80.6827 70.264 82.176 70.84 84.352 70.84C86.1013 70.84 88.0213 70.1573 90.112 68.792C92.2027 67.384 94.208 65.4427 96.128 62.968C98.0907 60.4507 99.6693 57.6133 100.864 54.456C100.821 54.1573 100.779 53.8373 100.736 53.496C100.693 53.1547 100.651 52.7707 100.608 52.344C100.48 49.528 100.416 47.8427 100.416 47.288C100.416 44.216 100.651 41.2933 101.12 38.52C101.589 35.704 102.464 33.336 103.744 31.416C105.067 29.4533 106.901 28.472 109.248 28.472C110.656 28.472 111.979 28.9413 113.216 29.88C111.765 35.128 110.379 41.6347 109.056 49.4C107.733 57.1227 107.072 63.864 107.072 69.624C107.072 71.928 107.456 73.72 108.224 75C106.688 76.1093 105.173 76.664 103.68 76.664Z" fill="url(#paint8_linear_626_18)"/>
<path d="M220.38 44.274C219.139 44.274 218.257 43.8003 217.734 42.853C217.211 41.9057 216.95 40.648 216.95 39.08C216.95 37.4793 217.228 35.601 217.783 33.445L217.489 33.396C215.856 36.4667 213.765 39.031 211.217 41.089C208.669 43.1143 205.843 44.127 202.74 44.127C200.127 44.127 198.248 43.3267 197.105 41.726C195.962 40.0927 195.39 38.1163 195.39 35.797C195.39 34.1963 195.651 31.7463 196.174 28.447C196.697 25.115 197.66 19.7903 199.065 12.473L197.546 9.484C198.526 8.83066 199.522 8.32433 200.535 7.965C201.548 7.573 202.462 7.377 203.279 7.377C203.998 7.377 204.537 7.60566 204.896 8.063C205.288 8.52033 205.484 9.17366 205.484 10.023C205.484 10.317 205.337 11.248 205.043 12.816C204.749 14.3513 204.422 16.05 204.063 17.912C203.214 22.2567 202.528 25.8337 202.005 28.643C201.515 31.4523 201.27 33.3797 201.27 34.425C201.27 36.2543 201.564 37.61 202.152 38.492C202.773 39.374 203.916 39.815 205.582 39.815C206.921 39.815 208.391 39.2923 209.992 38.247C211.593 37.169 213.128 35.6827 214.598 33.788C216.101 31.8607 217.309 29.6883 218.224 27.271C218.191 27.0423 218.159 26.7973 218.126 26.536C218.093 26.2747 218.061 25.9807 218.028 25.654C217.93 23.498 217.881 22.2077 217.881 21.783C217.881 19.431 218.061 17.1933 218.42 15.07C218.779 12.914 219.449 11.101 220.429 9.631C221.442 8.12833 222.846 7.377 224.643 7.377C225.721 7.377 226.734 7.73633 227.681 8.455C226.57 12.473 225.509 17.4547 224.496 23.4C223.483 29.3127 222.977 34.474 222.977 38.884C222.977 40.648 223.271 42.02 223.859 43C222.683 43.8493 221.523 44.274 220.38 44.274ZM239.729 44.225C238.488 44.225 237.426 44.0617 236.544 43.735C235.695 43.4083 235.009 42.7877 234.486 41.873C233.963 40.9583 233.702 39.6353 233.702 37.904C233.702 35.7153 234.127 32.1873 234.976 27.32C235.858 22.42 237.05 16.5237 238.553 9.631L236.397 7.181C237.181 6.52767 238.096 6.02133 239.141 5.662C240.219 5.27 241.183 5.074 242.032 5.074C242.979 5.074 243.649 5.28633 244.041 5.711C244.433 6.103 244.629 6.789 244.629 7.769C244.629 8.38966 244.498 9.25533 244.237 10.366C244.008 11.444 243.649 12.963 243.159 14.923C242.538 17.3403 242.032 19.4147 241.64 21.146L242.13 21.391C243.371 18.9083 244.907 16.9973 246.736 15.658C248.565 14.286 250.574 13.6 252.763 13.6C254.527 13.6 256.079 14.0573 257.418 14.972C258.79 15.854 259.835 17.128 260.554 18.794C261.305 20.4273 261.681 22.3383 261.681 24.527C261.681 28.1857 260.701 31.5177 258.741 34.523C256.814 37.5283 254.168 39.8967 250.803 41.628C247.471 43.3593 243.78 44.225 239.729 44.225ZM238.504 41.04C241.738 40.9093 244.662 40.1417 247.275 38.737C249.888 37.3323 251.93 35.454 253.4 33.102C254.903 30.7173 255.654 28.104 255.654 25.262C255.654 23.0407 255.197 21.3093 254.282 20.068C253.367 18.8267 252.077 18.206 250.411 18.206C248.386 18.206 246.458 19.1697 244.629 21.097C242.8 23.0243 241.313 25.7357 240.17 29.231C239.059 32.6937 238.504 36.63 238.504 41.04ZM277.96 44.225C276.196 44.225 274.628 43.7513 273.256 42.804C271.917 41.8567 270.872 40.5173 270.12 38.786C269.402 37.022 269.042 34.9967 269.042 32.71C269.042 29.182 269.875 25.9643 271.541 23.057C273.207 20.117 275.478 17.814 278.352 16.148C281.227 14.4493 284.396 13.6 287.858 13.6C289.361 13.6 290.896 13.7307 292.464 13.992C292.856 14.678 293.052 15.4457 293.052 16.295C289.361 16.295 286.16 16.9973 283.448 18.402C280.737 19.8067 278.663 21.7503 277.225 24.233C275.788 26.683 275.069 29.4597 275.069 32.563C275.069 34.7843 275.527 36.5157 276.441 37.757C277.356 38.9983 278.646 39.619 280.312 39.619C283.35 39.619 285.849 37.6917 287.809 33.837C289.769 29.9497 291.239 24.1023 292.219 16.295C292.579 15.8377 293.036 15.4783 293.591 15.217C294.179 14.9557 294.767 14.825 295.355 14.825C296.172 14.825 296.809 15.021 297.266 15.413C297.756 15.805 298.001 16.344 298.001 17.03C298.001 17.7813 297.887 18.6797 297.658 19.725C297.462 20.7703 297.119 22.3057 296.629 24.331C295.845 27.6303 295.241 30.4887 294.816 32.906C294.392 35.3233 294.179 37.7897 294.179 40.305C294.179 41.4483 294.473 42.2977 295.061 42.853C294.049 43.7677 292.954 44.225 291.778 44.225C290.668 44.225 289.818 43.882 289.23 43.196C288.642 42.51 288.348 41.5137 288.348 40.207C288.348 39.4883 288.463 38.5083 288.691 37.267L288.201 37.022C287.025 39.3087 285.539 41.089 283.742 42.363C281.978 43.6043 280.051 44.225 277.96 44.225ZM310.352 44.225C309.241 44.225 308.408 43.9473 307.853 43.392C307.297 42.8367 307.02 41.9547 307.02 40.746C307.02 39.4067 307.33 37.022 307.951 33.592C308.604 30.162 309.698 25.0007 311.234 18.108L309.078 15.658C309.862 15.0373 310.76 14.5473 311.773 14.188C312.818 13.796 313.765 13.6 314.615 13.6C315.595 13.6 316.281 13.8123 316.673 14.237C317.097 14.629 317.31 15.315 317.31 16.295C317.31 16.4583 317.212 16.9483 317.016 17.765C316.852 18.5817 316.64 19.4963 316.379 20.509C315.366 24.6577 314.517 28.4143 313.831 31.779C313.177 35.1437 312.851 37.9857 312.851 40.305C312.851 41.5463 313.145 42.412 313.733 42.902C312.655 43.784 311.528 44.225 310.352 44.225ZM314.713 9.435C313.667 9.435 312.834 9.19 312.214 8.7C311.593 8.17733 311.283 7.49133 311.283 6.642C311.283 5.98867 311.462 5.38433 311.822 4.829C312.214 4.27366 312.736 3.83266 313.39 3.506C314.043 3.14666 314.794 2.967 315.644 2.967C316.722 2.967 317.555 3.22833 318.143 3.751C318.763 4.241 319.074 4.89433 319.074 5.711C319.074 6.75633 318.665 7.63833 317.849 8.357C317.032 9.07566 315.987 9.435 314.713 9.435ZM333.563 44.225C331.799 44.225 330.231 43.7513 328.859 42.804C327.519 41.8567 326.474 40.5173 325.723 38.786C325.004 37.022 324.645 34.9967 324.645 32.71C324.645 29.4107 325.478 26.4053 327.144 23.694C328.81 20.95 331.08 18.794 333.955 17.226C336.829 15.6253 339.998 14.825 343.461 14.825C345.225 14.825 346.76 14.9557 348.067 15.217C348.459 15.8377 348.655 16.6053 348.655 17.52C345.029 17.52 341.86 18.157 339.149 19.431C336.437 20.705 334.347 22.4853 332.877 24.772C331.407 27.026 330.672 29.623 330.672 32.563C330.672 34.7843 331.129 36.5157 332.044 37.757C332.958 38.9983 334.249 39.619 335.915 39.619C337.711 39.619 339.475 38.8187 341.207 37.218C342.938 35.6173 344.277 33.4613 345.225 30.75L344.784 37.414L343.804 37.022C342.628 39.3087 341.141 41.089 339.345 42.363C337.581 43.6043 335.653 44.225 333.563 44.225ZM347.185 44.225C346.172 44.225 345.404 43.8983 344.882 43.245C344.359 42.6243 344.098 41.6607 344.098 40.354C344.098 39.1127 344.441 36.2217 345.127 31.681C345.813 27.1077 346.646 21.8483 347.626 15.903C347.854 14.7597 348.05 13.6653 348.214 12.62C348.41 11.542 348.589 10.5293 348.753 9.582L346.597 7.132C347.381 6.47866 348.295 5.97233 349.341 5.613C350.386 5.221 351.35 5.025 352.232 5.025C353.146 5.025 353.8 5.23733 354.192 5.662C354.584 6.054 354.78 6.74 354.78 7.72C354.78 8.37333 354.633 9.386 354.339 10.758C354.077 12.13 353.767 13.6327 353.408 15.266C352.33 20.0353 351.464 24.3473 350.811 28.202C350.157 32.024 349.831 35.9113 349.831 39.864C349.831 40.452 349.912 41.0237 350.076 41.579C350.272 42.1343 350.533 42.559 350.86 42.853C350.337 43.2777 349.765 43.6043 349.145 43.833C348.557 44.0943 347.903 44.225 347.185 44.225Z" fill="url(#paint9_linear_626_18)"/>
<path d="M220.527 96.274C219.318 96.274 218.436 95.9637 217.881 95.343C217.326 94.7223 217.048 93.7097 217.048 92.305C217.048 90.3777 217.309 87.4867 217.832 83.632C218.355 79.7773 219.367 73.391 220.87 64.473L219.302 61.484C221.491 60.112 223.434 59.426 225.133 59.426C226.57 59.426 227.289 60.2917 227.289 62.023C227.289 62.317 227.142 63.3787 226.848 65.208C226.554 67.0047 226.227 69.0137 225.868 71.235C224.921 77.213 224.218 81.6557 223.761 84.563C223.336 87.4703 223.124 89.512 223.124 90.688C223.124 91.6353 223.222 92.4683 223.418 93.187C223.614 93.9057 223.908 94.51 224.3 95C223.026 95.8493 221.768 96.274 220.527 96.274ZM198.771 96.274C197.562 96.274 196.68 95.9637 196.125 95.343C195.57 94.7223 195.292 93.7097 195.292 92.305C195.292 90.4103 195.553 87.5357 196.076 83.681C196.599 79.8263 197.595 73.4237 199.065 64.473L197.546 61.484C199.735 60.112 201.678 59.426 203.377 59.426C204.814 59.426 205.533 60.2917 205.533 62.023C205.533 62.317 205.386 63.3787 205.092 65.208C204.798 67.0047 204.471 69.0137 204.112 71.235C203.165 77.213 202.462 81.6557 202.005 84.563C201.58 87.4703 201.368 89.512 201.368 90.688C201.368 91.6353 201.466 92.4683 201.662 93.187C201.858 93.9057 202.152 94.51 202.544 95C201.27 95.8493 200.012 96.274 198.771 96.274ZM200.486 77.262H220.968L220.331 80.741H199.751L200.486 77.262ZM242.548 96.225C239.869 96.225 237.893 95.588 236.619 94.314C235.345 93.0073 234.708 90.9983 234.708 88.287C234.708 86.9477 234.806 85.5757 235.002 84.171C235.231 82.7663 235.574 80.9043 236.031 78.585C236.39 76.7883 236.668 75.2693 236.864 74.028C237.06 72.7867 237.158 71.676 237.158 70.696C237.158 69.9773 237.109 69.3077 237.011 68.687C236.913 68.0337 236.782 67.4457 236.619 66.923C237.272 66.531 237.958 66.2207 238.677 65.992C239.396 65.7307 239.984 65.6 240.441 65.6C241.388 65.6 242.074 65.8613 242.499 66.384C242.956 66.874 243.185 67.6743 243.185 68.785C243.185 69.6017 243.054 70.745 242.793 72.215C242.532 73.685 242.14 75.645 241.617 78.095C241.258 79.8917 240.915 81.6393 240.588 83.338C240.294 85.004 240.147 86.2127 240.147 86.964C240.147 88.826 240.539 90.2307 241.323 91.178C242.107 92.1253 243.267 92.599 244.802 92.599C246.697 92.599 248.461 91.8967 250.094 90.492C251.727 89.0547 253.018 87.0947 253.965 84.612L253.622 92.06L251.907 91.178C250.862 92.648 249.457 93.8567 247.693 94.804C245.929 95.7513 244.214 96.225 242.548 96.225ZM255.68 96.225C254.569 96.225 253.736 95.8493 253.181 95.098C252.658 94.3467 252.397 93.1707 252.397 91.57C252.397 90.2633 252.707 87.993 253.328 84.759C253.949 81.4923 254.978 76.772 256.415 70.598L254.406 67.658C255.059 67.07 255.925 66.58 257.003 66.188C258.081 65.796 259.061 65.6 259.943 65.6C260.923 65.6 261.609 65.8123 262.001 66.237C262.426 66.629 262.638 67.315 262.638 68.295C262.638 68.4583 262.54 68.9483 262.344 69.765C262.181 70.5817 261.968 71.4963 261.707 72.509C260.662 76.9843 259.812 80.8227 259.159 84.024C258.538 87.2253 258.228 89.9857 258.228 92.305C258.228 93.5463 258.506 94.412 259.061 94.902C258.081 95.784 256.954 96.225 255.68 96.225ZM279.454 96.225C276.22 96.225 273.672 95.784 271.81 94.902C269.948 94.02 269.017 92.795 269.017 91.227C269.017 90.5737 269.213 89.953 269.605 89.365C269.997 88.777 270.552 88.287 271.271 87.895C272.088 89.5283 273.182 90.786 274.554 91.668C275.926 92.5173 277.445 92.942 279.111 92.942C281.463 92.942 283.358 92.501 284.795 91.619C286.232 90.737 286.951 89.463 286.951 87.797C286.951 86.7843 286.412 85.9677 285.334 85.347C284.289 84.7263 282.672 84.0403 280.483 83.289C278.458 82.603 276.792 81.9497 275.485 81.329C274.178 80.7083 273.068 79.8753 272.153 78.83C271.238 77.752 270.781 76.429 270.781 74.861C270.781 73.0643 271.402 71.4637 272.643 70.059C273.884 68.6543 275.599 67.56 277.788 66.776C280.009 65.992 282.557 65.6 285.432 65.6C288.045 65.6 290.185 65.992 291.851 66.776C293.55 67.56 294.399 68.5563 294.399 69.765C294.399 70.941 294.007 71.8557 293.223 72.509C292.439 73.1297 291.41 73.44 290.136 73.44C288.895 73.44 287.833 73.048 286.951 72.264C286.069 71.48 285.399 70.3367 284.942 68.834C282.263 69.128 280.156 69.765 278.621 70.745C277.118 71.6923 276.367 72.852 276.367 74.224C276.367 74.91 276.628 75.498 277.151 75.988C277.706 76.478 278.392 76.9027 279.209 77.262C280.026 77.5887 281.185 78.0133 282.688 78.536C284.779 79.2547 286.461 79.9243 287.735 80.545C289.042 81.1657 290.152 82.015 291.067 83.093C292.014 84.1383 292.488 85.4613 292.488 87.062C292.488 88.7933 291.965 90.3613 290.92 91.766C289.875 93.138 288.356 94.216 286.363 95C284.403 95.8167 282.1 96.225 279.454 96.225ZM309.744 96.225C306.51 96.225 303.962 95.784 302.1 94.902C300.238 94.02 299.307 92.795 299.307 91.227C299.307 90.5737 299.503 89.953 299.895 89.365C300.287 88.777 300.842 88.287 301.561 87.895C302.378 89.5283 303.472 90.786 304.844 91.668C306.216 92.5173 307.735 92.942 309.401 92.942C311.753 92.942 313.648 92.501 315.085 91.619C316.522 90.737 317.241 89.463 317.241 87.797C317.241 86.7843 316.702 85.9677 315.624 85.347C314.579 84.7263 312.962 84.0403 310.773 83.289C308.748 82.603 307.082 81.9497 305.775 81.329C304.468 80.7083 303.358 79.8753 302.443 78.83C301.528 77.752 301.071 76.429 301.071 74.861C301.071 73.0643 301.692 71.4637 302.933 70.059C304.174 68.6543 305.889 67.56 308.078 66.776C310.299 65.992 312.847 65.6 315.722 65.6C318.335 65.6 320.475 65.992 322.141 66.776C323.84 67.56 324.689 68.5563 324.689 69.765C324.689 70.941 324.297 71.8557 323.513 72.509C322.729 73.1297 321.7 73.44 320.426 73.44C319.185 73.44 318.123 73.048 317.241 72.264C316.359 71.48 315.689 70.3367 315.232 68.834C312.553 69.128 310.446 69.765 308.911 70.745C307.408 71.6923 306.657 72.852 306.657 74.224C306.657 74.91 306.918 75.498 307.441 75.988C307.996 76.478 308.682 76.9027 309.499 77.262C310.316 77.5887 311.475 78.0133 312.978 78.536C315.069 79.2547 316.751 79.9243 318.025 80.545C319.332 81.1657 320.442 82.015 321.357 83.093C322.304 84.1383 322.778 85.4613 322.778 87.062C322.778 88.7933 322.255 90.3613 321.21 91.766C320.165 93.138 318.646 94.216 316.653 95C314.693 95.8167 312.39 96.225 309.744 96.225ZM339.593 96.225C337.829 96.225 336.261 95.7513 334.889 94.804C333.55 93.8567 332.505 92.5173 331.753 90.786C331.035 89.022 330.675 86.9967 330.675 84.71C330.675 81.182 331.508 77.9643 333.174 75.057C334.84 72.117 337.111 69.814 339.985 68.148C342.86 66.4493 346.029 65.6 349.491 65.6C350.994 65.6 352.529 65.7307 354.097 65.992C354.489 66.678 354.685 67.4457 354.685 68.295C350.994 68.295 347.793 68.9973 345.081 70.402C342.37 71.8067 340.296 73.7503 338.858 76.233C337.421 78.683 336.702 81.4597 336.702 84.563C336.702 86.7843 337.16 88.5157 338.074 89.757C338.989 90.9983 340.279 91.619 341.945 91.619C344.983 91.619 347.482 89.6917 349.442 85.837C351.402 81.9497 352.872 76.1023 353.852 68.295C354.212 67.8377 354.669 67.4783 355.224 67.217C355.812 66.9557 356.4 66.825 356.988 66.825C357.805 66.825 358.442 67.021 358.899 67.413C359.389 67.805 359.634 68.344 359.634 69.03C359.634 69.7813 359.52 70.6797 359.291 71.725C359.095 72.7703 358.752 74.3057 358.262 76.331C357.478 79.6303 356.874 82.4887 356.449 84.906C356.025 87.3233 355.812 89.7897 355.812 92.305C355.812 93.4483 356.106 94.2977 356.694 94.853C355.682 95.7677 354.587 96.225 353.411 96.225C352.301 96.225 351.451 95.882 350.863 95.196C350.275 94.51 349.981 93.5137 349.981 92.207C349.981 91.4883 350.096 90.5083 350.324 89.267L349.834 89.022C348.658 91.3087 347.172 93.089 345.375 94.363C343.611 95.6043 341.684 96.225 339.593 96.225ZM371.984 96.225C370.874 96.225 370.041 95.9473 369.485 95.392C368.93 94.8367 368.652 93.9547 368.652 92.746C368.652 91.4067 368.963 89.022 369.583 85.592C370.237 82.162 371.331 77.0007 372.866 70.108L370.71 67.658C371.494 67.0373 372.393 66.5473 373.405 66.188C374.451 65.796 375.398 65.6 376.247 65.6C377.227 65.6 377.913 65.8123 378.305 66.237C378.73 66.629 378.942 67.315 378.942 68.295C378.942 68.4583 378.844 68.9483 378.648 69.765C378.485 70.5817 378.273 71.4963 378.011 72.509C376.999 76.6577 376.149 80.4143 375.463 83.779C374.81 87.1437 374.483 89.9857 374.483 92.305C374.483 93.5463 374.777 94.412 375.365 94.902C374.287 95.784 373.16 96.225 371.984 96.225ZM376.345 61.435C375.3 61.435 374.467 61.19 373.846 60.7C373.226 60.1773 372.915 59.4913 372.915 58.642C372.915 57.9887 373.095 57.3843 373.454 56.829C373.846 56.2737 374.369 55.8327 375.022 55.506C375.676 55.1467 376.427 54.967 377.276 54.967C378.354 54.967 379.187 55.2283 379.775 55.751C380.396 56.241 380.706 56.8943 380.706 57.711C380.706 58.7563 380.298 59.6383 379.481 60.357C378.665 61.0757 377.619 61.435 376.345 61.435ZM391.031 96.225C389.887 96.225 389.038 95.9473 388.483 95.392C387.96 94.8367 387.699 93.9547 387.699 92.746C387.699 91.3087 388.123 88.3523 388.973 83.877C389.855 79.369 390.851 74.91 391.962 70.5L389.757 68.05C390.541 67.364 391.455 66.8087 392.501 66.384C393.579 65.9593 394.542 65.747 395.392 65.747C396.372 65.747 397.058 65.943 397.45 66.335C397.842 66.727 398.038 67.4293 398.038 68.442C398.038 69.2913 397.891 70.255 397.597 71.333C397.335 72.411 396.976 73.4073 396.519 74.322L397.009 74.567C400.308 68.589 404.587 65.6 409.847 65.6C411.97 65.6 413.538 66.139 414.551 67.217C415.596 68.2623 416.119 69.8957 416.119 72.117C416.119 73.4237 415.972 74.7793 415.678 76.184C415.416 77.5887 415.024 79.3527 414.502 81.476C413.881 83.9587 413.424 86.0003 413.13 87.601C412.836 89.169 412.689 90.737 412.689 92.305C412.689 93.481 412.901 94.3303 413.326 94.853C412.346 95.7677 411.3 96.225 410.19 96.225C409.079 96.225 408.246 95.9473 407.691 95.392C407.168 94.8367 406.907 93.9547 406.907 92.746C406.907 91.5047 407.037 90.1163 407.299 88.581C407.593 87.013 408.001 84.9877 408.524 82.505C409.014 80.447 409.373 78.732 409.602 77.36C409.863 75.9553 409.994 74.7467 409.994 73.734C409.994 71.088 408.997 69.765 407.005 69.765C404.685 69.765 402.48 70.8757 400.39 73.097C398.332 75.2857 396.666 78.1277 395.392 81.623C394.15 85.1183 393.53 88.679 393.53 92.305C393.53 93.5137 393.726 94.363 394.118 94.853C393.138 95.7677 392.109 96.225 391.031 96.225Z" fill="url(#paint10_linear_626_18)"/>
<defs>
<linearGradient id="paint0_linear_626_18" x1="42" y1="51.5" x2="2" y2="51.5" gradientUnits="userSpaceOnUse">
<stop stop-color="white"/>
<stop offset="1" stop-color="#C9C9C9"/>
</linearGradient>
<linearGradient id="paint1_linear_626_18" x1="46.5" y1="30" x2="18.5" y2="30" gradientUnits="userSpaceOnUse">
<stop stop-color="white"/>
<stop offset="1" stop-color="#C9C9C9"/>
</linearGradient>
<linearGradient id="paint2_linear_626_18" x1="46.5" y1="73" x2="18.5" y2="73" gradientUnits="userSpaceOnUse">
<stop stop-color="white"/>
<stop offset="1" stop-color="#C9C9C9"/>
</linearGradient>
<linearGradient id="paint3_linear_626_18" x1="135.5" y1="31" x2="163.5" y2="31" gradientUnits="userSpaceOnUse">
<stop stop-color="white"/>
<stop offset="1" stop-color="#C9C9C9"/>
</linearGradient>
<linearGradient id="paint4_linear_626_18" x1="140" y1="52.5" x2="180" y2="52.5" gradientUnits="userSpaceOnUse">
<stop stop-color="white"/>
<stop offset="1" stop-color="#C9C9C9"/>
</linearGradient>
<linearGradient id="paint5_linear_626_18" x1="135.5" y1="74" x2="163.5" y2="74" gradientUnits="userSpaceOnUse">
<stop stop-color="white"/>
<stop offset="1" stop-color="#C9C9C9"/>
</linearGradient>
<linearGradient id="paint6_linear_626_18" x1="57.8027" y1="6" x2="57.8027" y2="98" gradientUnits="userSpaceOnUse">
<stop stop-color="white"/>
<stop offset="1" stop-color="#C9C9C9"/>
</linearGradient>
<linearGradient id="paint7_linear_626_18" x1="124.197" y1="6" x2="124.197" y2="98" gradientUnits="userSpaceOnUse">
<stop stop-color="white"/>
<stop offset="1" stop-color="#C9C9C9"/>
</linearGradient>
<linearGradient id="paint8_linear_626_18" x1="84.5" y1="29" x2="84.5" y2="76" gradientUnits="userSpaceOnUse">
<stop stop-color="white"/>
<stop offset="1" stop-color="#C9C9C9"/>
</linearGradient>
<linearGradient id="paint9_linear_626_18" x1="274" y1="0" x2="274" y2="52" gradientUnits="userSpaceOnUse">
<stop stop-color="white"/>
<stop offset="1" stop-color="#C9C9C9"/>
</linearGradient>
<linearGradient id="paint10_linear_626_18" x1="305" y1="52" x2="305" y2="104" gradientUnits="userSpaceOnUse">
<stop stop-color="white"/>
<stop offset="1" stop-color="#C9C9C9"/>
</linearGradient>
</defs>
</svg>
